<?xml version="1.0" encoding="utf-8"?><!-- Uploaded to: SVG Repo, www.svgrepo.com, Generator: SVG Repo Mixer Tools -->
<svg width="800px" height="800px" viewBox="0 -0.02 28.045 28.045" xmlns="http://www.w3.org/2000/svg">
  <g id="Lager_10" data-name="Lager 10" transform="translate(-2 -2)">
    <path id="Path_14" data-name="Path 14" d="M14,6a7.987,7.987,0,0,1,6.52,12.619l-.789,1.112-1.112.789A8,8,0,1,1,14,6m0-4a12,12,0,1,0,6.936,21.781l5.635,5.636a1.993,1.993,0,0,0,2.817,0l.029-.029a1.9,1.9,0,0,0,0-2.817l-5.636-5.635A11.988,11.988,0,0,0,14,2Z" fill="#040505"/>
  </g>
</svg>